<?xml version="1.0" encoding="utf-8"?>
<!-- Designed by Vexels.com - 2017 All Rights Reserved - https://vexels.com/terms-and-conditions/  -->

<svg version="1.1" id="Layer_1" xmlns="http://www.w3.org/2000/svg" xmlns:xlink="http://www.w3.org/1999/xlink" x="0px" y="0px"
	 width="1200px" height="1200px" viewBox="0 0 1200 1200" enable-background="new 0 0 1200 1200" xml:space="preserve">
<g>
	<linearGradient id="SVGID_1_" gradientUnits="userSpaceOnUse" x1="625.408" y1="872.3687" x2="622.1736" y2="1004.9786">
		<stop  offset="0.0812" style="stop-color:#CF9942"/>
		<stop  offset="1" style="stop-color:#EEAE4B"/>
	</linearGradient>
	<path fill="url(#SVGID_1_)" d="M314.597,796.97c0,0-120.615,259.732,330.011,261.152c273.323,0,309.168-110.93,307.456-248.008
		C948.329,798.402,314.597,796.97,314.597,796.97z"/>
	<path fill="#FDEDB1" d="M267.449,699.439c-22.612,1.445-252.406,11.558-212.891,88.926c39.431,77.266,111,64.173,154.53,58.303
		c43.254-5.766,107.529,38.051,152.721,42.347c45.275,4.462,180.984,45.364,209.363,7.236
		c28.122-37.82,101.704,56.961,165.948,14.729c63.942-42.385,209.151-1.61,260.013-33.562
		c50.882-32.234,109.48-5.856,69.996-109.485c-5.702-23.296,41.484-96.266-64.185-90.409
		C897.319,683.328,267.449,699.439,267.449,699.439z"/>
	<path fill="#FFE300" d="M811.782,771.795c0,25.073-80.02,45.351-178.612,45.351c-98.757,0-178.81-20.278-178.81-45.351
		c0-24.997,80.053-45.454,178.81-45.454C731.762,726.341,811.782,746.798,811.782,771.795z"/>
	<path fill="#815411" d="M263.715,624.974c-13.125,16.06-52.736,56.872-9.41,115.278c43.504,58.405,182.832,46.656,275.235,39.38
		c58.508-8.809,390.449,74.35,475.238-70.041c13.183-27.631,13.183-65.592-20.77-97.85
		C950.074,579.764,263.715,624.974,263.715,624.974z"/>
	<path fill="#E8451C" d="M269.469,582.602c-0.825,1.125-2.238,2.71-4.008,4.577c-20.771,21.992-75.271,109.255,105.656,123.818
		c163.11,13.195,675.024,43.791,618.626-128.395c-20.681-1.33-648.679,1.495-648.679,1.495L269.469,582.602z"/>
	<path fill="#EE7203" d="M290.489,576.171c-0.55,1.1-1.534,2.595-3.375,4.411c-19.665,20.688-71.077,102.913,99.532,116.633
		c153.373,12.288,635.727,41.221,582.416-121.044c-19.447-1.381-610.929,1.47-610.929,1.47L290.489,576.171z"/>
	<linearGradient id="SVGID_2_" gradientUnits="userSpaceOnUse" x1="594.7197" y1="846.8719" x2="614.5754" y2="383.565">
		<stop  offset="0.4518" style="stop-color:#71A624"/>
		<stop  offset="0.7614" style="stop-color:#58831C"/>
	</linearGradient>
	<path fill="url(#SVGID_2_)" d="M290.239,437.648c-29.836,2.544-209.822,5.165-226.33,123.729
		c13.163,12.888,93.248,41.221,206.352,28.346c16.852,20.688,50.031,87.571,50.031,87.571s189.948-46.297,253.231-56.565
		c69.849,23.065,163.32,59.301,163.32,59.301s-3.369-36.235,36.613-59.301c66.448,2.544,223.273,23.065,223.273,23.065l3.216-59.352
		L1150,561.377c0,0-36.644-77.432-138.292-105.649L290.239,437.648z"/>
	<linearGradient id="SVGID_3_" gradientUnits="userSpaceOnUse" x1="650.1364" y1="584.8018" x2="648.525" y2="314.058">
		<stop  offset="0.0812" style="stop-color:#CF9942"/>
		<stop  offset="1" style="stop-color:#EEAE4B"/>
	</linearGradient>
	<path fill="url(#SVGID_3_)" d="M656.862,142.423c60.164,2.582,334.868-23.156,354.846,313.305
		c-9.96,34.79-104.862,96.597-384.784,104.383c-54.89,0-244.927-11.647-324.947-61.896
		C262.021,444.08,276.968,127.002,656.862,142.423z"/>
	<g>
		<path fill="#B5873A" d="M471.914,337.79c16.725,7.198,27.534,87.008-19.978,83.02C404.545,413.137,436.919,322.242,471.914,337.79
			z"/>
		<path fill="#B5873A" d="M641.627,337.1c13.732,5.932,22.977,71.972-16.359,68.775C586.028,399.457,612.898,324.174,641.627,337.1z
			"/>
		<path fill="#C08F3E" d="M553.712,295.125c-11.948-1.791-39.158-48.177-9.596-53.164
			C574.662,239.224,578.855,299.075,553.712,295.125z"/>
		<path fill="#C08F3E" d="M728.731,281.686c-12.166-1.88-39.278-48.228-9.627-53.28
			C749.744,225.645,753.824,285.547,728.731,281.686z"/>
		<path fill="#B5873A" d="M842.232,371.226c-16.353-2.481-53.983-66.448-13.119-73.34
			C871.218,294.254,876.644,376.596,842.232,371.226z"/>
		<path fill="#B5873A" d="M731.487,443.53c-10.695-1.534-35.635-43.498-8.611-48.151C750.627,393,754.028,447.02,731.487,443.53z"/>
	</g>
</g>
</svg>
